<svg width="3981" height="3190" viewBox="0 0 3981 3190" fill="none" xmlns="http://www.w3.org/2000/svg">
<mask id="mask0_315_302" style="mask-type:luminance" maskUnits="userSpaceOnUse" x="0" y="0" width="3981" height="3190">
<path d="M0.895508 0.574036H3981V3189.53H0.895508V0.574036Z" fill="white"/>
</mask>
<g mask="url(#mask0_315_302)">
<mask id="mask1_315_302" style="mask-type:luminance" maskUnits="userSpaceOnUse" x="-190" y="-165" width="4358" height="3526">
<path d="M-189.666 1242.17L3318.08 -164.074L4167.28 1954.11L659.492 3360.4L-189.666 1242.17Z" fill="white"/>
</mask>
<g mask="url(#mask1_315_302)">
<mask id="mask2_315_302" style="mask-type:luminance" maskUnits="userSpaceOnUse" x="-190" y="-165" width="4358" height="3526">
<path d="M-189.666 1242.17L3318.08 -164.074L4167.28 1954.11L659.492 3360.4L-189.666 1242.17Z" fill="white"/>
</mask>
<g mask="url(#mask2_315_302)">
<path d="M2817.71 44.411C2643.03 114.445 2536.82 293.31 2509.86 483.729C2358.62 364.295 2158.45 308.762 1983.72 378.796C1809.04 448.831 1702.82 627.696 1675.82 818.114C1524.77 699.061 1324.41 643.1 1149.73 713.134C975.05 783.168 868.834 962.033 841.828 1152.45C690.777 1033.4 490.422 977.438 315.741 1047.47C-10.3244 1177.7 -51.2133 1571.8 57.38 1842.67L49.1547 1822.13L76.5407 1890.45L424.714 2758.86C533.308 3029.77 833.556 3282.67 1159.86 3151.87C1334.54 3081.84 1441.28 2904.26 1468.62 2714.65C1619.34 2832.84 1819.17 2887.57 1993.85 2817.53C2168.58 2747.5 2275.27 2569.87 2302.61 2380.31C2453.33 2498.5 2653.16 2553.18 2827.89 2483.15C3002.57 2413.11 3109.26 2235.53 3136.6 2045.97C3287.32 2164.17 3487.2 2218.84 3661.88 2148.81C3983.95 2019.68 4030.4 1627.29 3921.95 1356.8L3902.79 1309.02L3554.66 440.605C3445.64 169.883 3139.26 -84.9595 2817.71 44.411Z" fill="#FAF1E6"/>
</g>
</g>
</g>
</svg>
