<svg width="164" height="51" viewBox="0 0 164 51" fill="none" xmlns="http://www.w3.org/2000/svg">
<path d="M15.1842 1.96313C14.2871 2.10575 12.3109 2.70217 11.4269 3.1041C10.1918 3.66162 8.29364 4.94521 7.6696 5.63239C7.08455 6.28067 7.01955 6.86412 7.50058 7.40868C7.98162 7.9662 8.57966 7.91433 9.35972 7.22716C11.4399 5.38604 14.0011 4.46549 17.6023 4.271C19.0585 4.19321 21.7107 4.37473 22.0877 4.58218C22.2307 4.65997 21.2426 5.98246 17.9794 10.1185C15.6132 13.1135 13.429 15.7844 13.13 16.0567C12.402 16.705 11.7129 16.8865 9.42473 17.0551C6.3565 17.2755 5.22541 17.5089 4.14633 18.1442C3.31427 18.6239 3.00224 19.1944 3.01525 20.2057C3.01525 21.1911 3.22326 21.7746 4.12033 23.4601C4.91339 24.9252 5.30342 26.1051 5.17341 26.6107C5.13441 26.8052 4.58836 27.6869 3.96432 28.5815C2.4042 30.8245 2.07917 31.3432 1.48113 32.6267C-0.078988 35.933 0.42805 38.4872 2.62522 38.4742C3.53528 38.4613 4.39335 38.0075 5.36842 37.035C6.31749 36.0886 6.87654 35.0902 7.31857 33.5214C7.53959 32.7434 7.61759 32.0303 7.6826 30.0077L7.7736 27.4664L8.17663 26.8311C9.0217 25.4697 13.546 19.5315 14.0011 19.1944C15.0152 18.4165 15.7952 18.3646 21.7107 18.6239C24.7009 18.7536 25.0259 18.7536 25.3249 18.5591C25.91 18.1701 25.65 17.4311 24.8699 17.2625C24.6879 17.2236 22.9327 17.1329 20.9696 17.0551C19.0065 16.9773 17.1993 16.8476 16.9653 16.7828C16.4843 16.6272 16.3152 16.1993 16.5493 15.7456C16.6403 15.59 18.5514 13.1654 20.7876 10.3778L24.8699 5.28232L25.884 5.59349C28.5492 6.42329 32.2284 7.03267 35.1407 7.14936C40.003 7.35681 45.9445 6.11212 47.0886 4.65997C47.4656 4.18024 47.4526 3.44121 47.0756 3.09114C46.5295 2.59844 46.1915 2.62437 44.9304 3.24672C42.7592 4.32287 40.2501 4.78963 36.6358 4.77666C33.2295 4.7637 30.1223 4.29694 26.105 3.18189C22.2047 2.10575 21.4636 1.98906 18.3694 1.95016C16.8353 1.92423 15.4052 1.9372 15.1842 1.96313ZM10.4518 18.8573C10.6858 19.0518 10.7248 19.1555 10.6338 19.35C10.5558 19.4926 9.72375 20.6725 8.76168 21.969C7.20156 24.0695 6.98054 24.3288 6.68152 24.2899C6.29149 24.251 5.86246 23.5638 5.23841 21.9561C4.80938 20.854 4.74438 19.9853 5.0434 19.5574C5.34242 19.1425 6.20049 18.8703 7.64359 18.7536C9.81476 18.5721 10.1268 18.585 10.4518 18.8573ZM6.05747 30.6949C6.29149 31.5765 5.21241 35.181 4.43235 36.1145C3.87331 36.8017 3.10625 36.9573 2.87223 36.4386C2.59921 35.8552 3.19726 34.3641 4.66637 31.9396C5.0694 31.2783 5.45943 30.656 5.52443 30.5652C5.73245 30.3189 5.97947 30.3837 6.05747 30.6949Z" fill="#F15A31"/>
<path d="M112.299 12.2967C111.129 12.6856 110.154 13.3339 109.127 14.423C107.502 16.1215 106.579 17.8978 106.124 20.1409C105.994 20.8021 105.786 21.4763 105.656 21.6319C105.539 21.7875 104.538 22.5914 103.433 23.4082C101.287 24.99 100.351 25.9106 99.3763 27.3886C98.6092 28.5426 98.2062 29.6965 98.2062 30.7078C98.2062 31.8099 98.4402 32.4711 99.0772 33.0935C99.8183 33.8325 100.715 34.0918 102.223 34.0011C103.537 33.9233 104.551 33.6121 106.319 32.7305C107.021 32.3804 107.697 32.0951 107.814 32.0951C108.139 32.0951 108.347 32.3804 109.114 33.8455C110.349 36.2182 111.363 36.9313 112.169 35.9719C112.637 35.4143 112.598 35.0513 111.922 34.0529C111.116 32.8342 110.297 31.2005 110.297 30.7986C110.297 30.6041 110.375 30.3707 110.466 30.254C110.544 30.1373 111.857 29.1649 113.352 28.0758C114.86 26.9867 116.187 25.9883 116.317 25.8457C116.59 25.5216 116.603 24.8603 116.33 24.4714C116.187 24.2639 116.004 24.1861 115.666 24.1861C115.276 24.1861 114.795 24.4843 112.481 26.1958C110.973 27.2979 109.647 28.2055 109.504 28.2055C109.166 28.2055 108.906 27.7517 108.62 26.6237C108.191 24.977 108.022 22.721 108.204 21.3985C108.685 17.9497 110.401 15.0713 112.299 14.5268C114.678 13.8396 115.614 15.4214 114.327 17.9626C113.859 18.8962 113.833 19.3759 114.236 19.7519C114.587 20.089 114.847 20.102 115.367 19.8427C116.421 19.2981 117.37 16.0826 116.941 14.5138C116.577 13.1524 115.328 12.2448 113.755 12.167C113.222 12.1541 112.611 12.2059 112.299 12.2967ZM105.864 24.6659C105.929 24.7955 106.098 25.4827 106.241 26.1958C106.384 26.9089 106.657 27.9591 106.839 28.5296C107.138 29.4761 107.151 29.5798 106.969 29.8651C106.501 30.5652 104.694 31.3561 102.665 31.7321C101.599 31.9266 100.897 31.7321 100.546 31.1486C100.065 30.3707 100.312 29.3983 101.339 28.0369C101.976 27.1941 103.719 25.6512 104.954 24.8214C105.63 24.3806 105.695 24.3676 105.864 24.6659Z" fill="#F15A31"/>
<path d="M90.3298 20.7632C88.5617 21.1652 85.5715 21.4634 83.3223 21.4634C81.0601 21.4634 81.0601 21.4634 80.2021 21.0614C79.162 20.5817 78.5509 20.5947 77.8489 21.1392C77.0298 21.7486 77.0688 22.6043 77.9139 22.9414C78.4339 23.1489 78.4339 23.1489 78.2519 23.5119C78.1479 23.7064 77.3809 24.614 76.5228 25.5346C72.9735 29.4113 69.5933 31.9136 67.7081 32.0692C67.0971 32.1211 66.9671 32.0822 66.681 31.7969C66.278 31.395 66.265 31.032 66.59 30.0725C67.0191 28.8667 68.2152 27.259 69.9443 25.5346C71.7124 23.7712 71.8554 23.486 71.2184 22.8896C70.9324 22.6303 70.7374 22.5784 69.9443 22.5525C69.1902 22.5395 68.7352 22.4358 67.5781 21.982C66.343 21.5023 66.031 21.4374 65.1599 21.4374C62.1567 21.4634 57.8144 24.2769 55.1882 27.8943C54.0701 29.4372 50.8979 31.8488 48.3757 33.0805C46.3345 34.0659 46.0875 33.8196 47.4656 32.1729C48.6747 30.7467 48.8177 30.5393 50.4688 27.9721C51.2619 26.7274 52.263 25.2623 52.692 24.7177C53.121 24.1602 53.472 23.5897 53.472 23.4471C53.472 22.9285 53.004 22.6951 51.7949 22.6303C50.9369 22.5654 50.4948 22.4747 49.9098 22.1894C48.6487 21.593 48.1156 21.4504 47.1666 21.4504C46.0095 21.4374 45.2294 21.6319 43.8903 22.2543C41.5891 23.3045 39.197 25.1845 37.7409 27.0515C37.2728 27.648 36.5708 28.4778 36.1807 28.9056C34.7376 30.4615 32.1114 32.0951 30.7593 32.3026C29.4722 32.4971 28.9132 31.7451 29.3422 30.4485C29.6673 29.502 30.3563 28.5555 32.6315 25.9754C35.5177 22.6951 35.4007 22.8507 35.4007 22.3321C35.4007 21.5412 34.3606 21.0485 33.5805 21.4634C33.4375 21.5412 32.4885 22.6043 31.4484 23.8361C26.768 29.4242 23.7258 32.2248 21.6716 32.8212C21.0866 32.9898 20.9176 32.9898 20.6186 32.8472C19.7995 32.4582 19.7735 31.5895 20.5146 30.0855C21.0736 28.9575 21.6066 28.2444 24.1158 25.3141C25.2079 24.0306 26.157 22.8636 26.209 22.721C26.469 22.0209 25.923 21.3337 25.1039 21.3337C24.6229 21.3337 24.4929 21.4115 23.9728 21.9561C23.0888 22.8766 20.3195 26.1958 19.3445 27.5053C16.9393 30.7078 16.6793 33.0676 18.6164 34.0659C19.9295 34.7531 21.8797 34.4678 24.1678 33.2621C26.092 32.2507 26.768 32.2378 27.8341 33.1972C28.6012 33.8844 29.2122 34.1696 29.9273 34.1696C31.1104 34.1696 33.2165 33.1972 34.9326 31.8618L35.7647 31.2005L35.8557 31.7451C36.1027 33.1713 37.1818 34.053 38.7159 34.053C39.847 34.053 40.4191 33.8844 42.2262 32.9898C43.7863 32.2248 44.2544 32.134 44.4234 32.5619C44.5274 32.8472 43.0323 34.9605 42.3952 35.4143C42.0832 35.6477 39.782 36.6461 37.2598 37.6444C30.1483 40.4839 28.8742 41.1581 27.0151 43.0381C25.4029 44.6588 24.7529 46.1628 24.9999 47.6927C25.2079 48.9763 25.832 49.7802 27.0801 50.3637C27.7041 50.6619 27.9641 50.7008 29.0952 50.7008C30.2783 50.6878 30.4863 50.6489 31.4224 50.247C33.4245 49.4042 36.3238 47.1612 38.7679 44.594C39.899 43.4011 40.5101 42.5454 42.9673 38.7724C44.2153 36.8535 44.5664 36.5553 47.5176 35.0643C49.8578 33.8844 53.303 31.771 53.7191 31.2654C53.9921 30.9412 54.1221 31.019 54.1221 31.5376C54.1351 33.1972 55.8512 34.4549 57.8144 34.2345C58.7765 34.1307 59.2965 33.9103 60.8046 32.9509C61.9617 32.2248 62.7027 31.9266 63.0278 32.0433C63.1318 32.0822 63.3918 32.4323 63.5998 32.8083C63.8858 33.3009 64.1719 33.6121 64.6139 33.8714C65.1729 34.1956 65.3679 34.2345 66.343 34.2345C68.0591 34.2215 69.5543 33.5343 72.2585 31.5247C74.7416 29.6706 76.3148 28.1277 78.824 25.0937C80.3971 23.1878 80.007 23.4082 81.8402 23.3952C82.7113 23.3952 84.1154 23.3434 84.9344 23.2915C85.7535 23.2267 86.4555 23.2008 86.4685 23.2267C86.4945 23.2397 86.1825 23.486 85.7535 23.7583C84.4274 24.614 82.9583 25.7679 81.6322 26.9737C79.5 28.9186 78.0309 30.1244 76.8088 30.9542L75.6517 31.7321L74.7286 31.6414C73.9096 31.5636 73.7666 31.5895 73.3635 31.8618C72.8045 32.2378 72.4665 33.0676 72.6485 33.5992C72.9475 34.429 73.9226 34.6494 75.4307 34.2474C76.1068 34.0659 76.1718 34.0659 77.3158 34.429C78.98 34.9476 79.721 35.0772 80.9821 35.0772C83.2313 35.0772 85.4805 34.3382 87.7036 32.8731C89.5368 31.6543 92.735 28.776 92.735 28.3351C92.735 28.2573 92.592 28.0499 92.41 27.8684C91.9549 27.4146 91.7339 27.5183 90.2648 28.8667C87.9246 31.032 86.1695 32.1859 84.3624 32.7305C82.2692 33.3787 79.097 32.8342 79.396 31.8877C79.435 31.7451 80.6051 30.6689 81.9832 29.4891C86.2735 25.8068 87.8076 24.6659 90.6549 23.0192C91.5389 22.5136 92.345 21.995 92.436 21.8783C92.683 21.5412 92.631 21.1522 92.306 20.841C91.9549 20.5169 91.4999 20.4909 90.3298 20.7632ZM47.9856 23.3045C48.4797 23.5508 48.8177 24.0954 48.8177 24.627C48.8177 26.2347 45.6195 29.528 42.6162 30.9931C40.7051 31.9266 39.652 31.9914 38.8589 31.1876C38.4949 30.8245 38.4559 30.7208 38.4559 29.9818C38.4689 29.3464 38.5469 29.0353 38.8459 28.4648C39.392 27.4794 41.1081 25.729 42.3562 24.8992C44.8004 23.2785 46.7765 22.721 47.9856 23.3045ZM66.2 23.2267C67.1231 23.875 66.9541 25.0937 65.68 26.7793C64.0548 28.9315 61.1036 31.1227 59.1405 31.6284C57.1123 32.16 56.1242 30.7078 57.0993 28.6333C57.7624 27.2331 59.9595 25.1715 61.9747 24.0435C63.7038 23.0841 65.485 22.734 66.2 23.2267ZM40.5491 38.5909C40.7571 38.941 37.0908 43.8549 35.1797 45.7738C33.7756 47.1871 32.6965 47.991 31.4224 48.5874C30.6553 48.9374 30.3433 49.0152 29.3552 49.0541C28.3282 49.093 28.1201 49.0541 27.6651 48.7948C25.949 47.8094 26.625 45.3071 29.1472 43.3233C30.0053 42.6621 33.5155 40.808 35.5957 39.9264C38.6639 38.6428 40.3021 38.189 40.5491 38.5909Z" fill="#F15A31"/>
<path d="M161.714 31.8877C161.22 32.1081 160.934 32.7175 161.103 33.2232C161.233 33.6121 161.948 34.1697 162.312 34.1697C162.624 34.1697 163.222 33.677 163.365 33.288C163.547 32.8212 163.287 32.1341 162.832 31.9007C162.377 31.6673 162.234 31.6673 161.714 31.8877Z" fill="#F15A31"/>
<path d="M141.12 2.45582C138.572 3.94686 136.362 5.74907 133.71 8.45888C130.381 11.8429 127.794 15.3955 126 19.0258C124.167 22.721 123.517 25.1715 123.53 28.2055C123.543 30.3707 123.777 31.4987 124.518 32.9638C127.248 38.3705 134.256 37.8778 142.42 31.7321L143.785 30.6949L143.876 31.4209C144.149 33.4436 145.658 34.805 147.764 34.9216C149.48 35.0124 151.17 34.403 153.263 32.912L154.29 32.1989L155.668 32.16C157.735 32.1081 158.944 31.5895 161.207 29.7743C162.351 28.8667 162.442 28.763 162.442 28.4259C162.442 28.1536 162 27.6869 161.74 27.6869C161.636 27.6869 160.687 28.2573 159.621 28.9704C157.631 30.28 156.864 30.6689 156.201 30.6689H155.824L156.487 29.7873C156.851 29.3076 157.358 28.4778 157.618 27.9462C158.06 27.0256 158.086 26.896 158.086 25.6772C158.086 24.5492 158.047 24.2899 157.748 23.6675C157.319 22.7729 156.721 22.1635 155.85 21.7745C154.173 21.0225 152.483 21.3078 150.442 22.7081C149.87 23.097 149.701 23.1489 148.96 23.1489C148.453 23.1489 147.933 23.2267 147.673 23.3563C146.88 23.7323 145.853 25.0289 145.046 26.6626C144.357 28.0499 144.214 28.2444 143.226 29.126C140.314 31.7191 136.804 33.5732 133.58 34.2345C132.24 34.5068 130.069 34.4419 129.159 34.1178C125.701 32.8472 125.025 28.9315 127.274 23.1748C130.602 14.6953 138.403 5.69721 144.682 3.11706C147.101 2.13168 149.649 2.06685 150.455 2.9874C151.079 3.71348 150.897 3.94686 148.271 5.91763C146.269 7.40867 143.213 10.4167 142.368 11.7003C141.354 13.2562 141.068 14.073 141.055 15.4344C141.055 16.4846 141.094 16.6661 141.419 17.2236C142.16 18.4813 143.772 18.7925 145.462 17.9886C146.607 17.457 148.323 15.7844 149.35 14.2026C150.806 11.9726 152.184 8.78302 152.574 6.79929C152.756 5.80094 152.938 5.42494 153.432 4.98411C154.316 4.18024 156.032 3.54492 157.982 3.31154C159.309 3.15596 159.751 2.90961 159.816 2.30023L159.855 1.88533H157.605C155.265 1.88533 155.135 1.91126 153.575 2.58547C152.86 2.89665 152.613 2.84478 152.223 2.33913L151.885 1.88533H142.095L141.12 2.45582ZM150.806 6.98081C152.015 7.86247 147.049 15.5381 144.448 16.7828C143.668 17.1588 143.148 17.1329 142.81 16.705C142.355 16.1215 142.693 15.1751 144.071 13.1265C145.645 10.8057 148.622 7.69391 149.883 7.07157C150.52 6.76039 150.494 6.76039 150.806 6.98081ZM155.213 23.2526C155.785 23.5897 156.409 24.4584 156.513 25.0808C156.76 26.6107 155.343 29.515 154.121 30.0207C153.523 30.267 152.522 30.1244 151.911 29.6965C151.157 29.1779 150.429 28.011 150.234 27.0515C150.104 26.3773 150.104 26.1439 150.273 25.5735C150.585 24.4844 151.56 23.5249 152.808 23.0581C153.406 22.8377 154.667 22.9414 155.213 23.2526ZM148.011 27.1682C148.154 27.246 148.375 27.5702 148.518 27.8943C148.921 28.7889 149.493 29.4372 150.832 30.5004C151.625 31.1227 152.041 31.5506 152.041 31.7191C152.041 32.0303 150.871 32.7953 149.844 33.1583C149.311 33.3528 148.869 33.4047 148.206 33.3658C146.711 33.301 146.061 32.6267 146.061 31.1616C146.061 29.8391 146.672 27.9721 147.283 27.3627C147.647 26.9997 147.673 26.9867 148.011 27.1682Z" fill="#F15A31"/>
<path d="M141.789 2.06994C143.216 0.8198 147.219 -0.96502 151.817 1.89685C148.955 2.11225 142.943 2.44844 141.789 2.06994Z" fill="#F15A31"/>
</svg>
