<svg width="156" height="153" viewBox="0 0 156 153" fill="none" xmlns="http://www.w3.org/2000/svg">
<path d="M4.86766 85.6984C4.40156 85.9542 3.99681 86.2519 3.65341 86.5914C3.30416 86.927 3.02364 87.3031 2.81184 87.7198C2.59912 88.1315 2.46204 88.5799 2.4006 89.065C2.33916 89.55 2.3598 90.0655 2.46254 90.6113C2.63099 91.5063 3.01528 92.2766 3.61542 92.9222C4.21555 93.5679 5.00627 94.0224 5.98758 94.2858C6.96889 94.5491 8.11355 94.5577 9.42155 94.3115C10.7295 94.0653 11.7923 93.6387 12.6098 93.0317C13.4273 92.4247 13.9968 91.7039 14.3183 90.8695C14.6399 90.0351 14.7127 89.1507 14.5369 88.2164C14.374 87.351 14.0461 86.6235 13.5533 86.034C13.0546 85.4405 12.4313 85.0232 11.6833 84.7822C10.9294 84.5371 10.0903 84.5016 9.16584 84.6756L9.17834 84.0928L10.0335 88.6364L8.41084 88.9418L7.32795 83.1886L8.95065 82.8832C10.1947 82.649 11.3265 82.7109 12.346 83.0689C13.3646 83.422 14.2146 84.0155 14.896 84.8496C15.5715 85.6796 16.0222 86.6945 16.2481 87.8943C16.4998 89.2318 16.4063 90.4663 15.9676 91.5977C15.5279 92.7242 14.781 93.6795 13.727 94.4634C12.672 95.2424 11.3479 95.7818 9.75475 96.0817C8.55985 96.3066 7.45534 96.349 6.44122 96.209C5.42127 96.0649 4.51892 95.7612 3.73419 95.298C2.94945 94.8347 2.30171 94.2336 1.79096 93.4948C1.28021 92.7559 0.93366 91.9021 0.751326 90.9334C0.601385 90.1368 0.582102 89.3716 0.693472 88.6378C0.798999 87.9001 1.01968 87.2196 1.35551 86.5963C1.68549 85.969 2.11865 85.4165 2.65498 84.9388C3.1864 84.462 3.80549 84.0858 4.51225 83.8102L4.86766 85.6984Z" fill="black"/>
<path d="M15.7588 68.8757C15.6655 69.6003 15.4443 70.2402 15.0953 70.7956C14.7413 71.3504 14.2814 71.7679 13.7156 72.0482C13.1448 72.3278 12.4872 72.4196 11.7428 72.3237C11.0877 72.2394 10.5734 72.0419 10.1997 71.7315C9.821 71.4203 9.54286 71.0339 9.36523 70.5721C9.1876 70.1103 9.07529 69.6115 9.02827 69.0757C8.97693 68.5343 8.95072 67.9937 8.94965 67.4537C8.94982 66.7475 8.95538 66.1756 8.96633 65.7381C8.97296 65.295 8.93199 64.9668 8.84342 64.7536C8.75549 64.5354 8.57009 64.4081 8.28722 64.3717L8.22767 64.364C7.4932 64.2694 6.89661 64.3969 6.43789 64.7464C5.97981 65.091 5.69868 65.6678 5.59447 66.4767C5.48644 67.3153 5.58535 67.9966 5.89121 68.5203C6.19708 69.044 6.54598 69.4295 6.9379 69.6767L6.12759 71.2674C5.47118 70.8802 4.9814 70.4135 4.65824 69.8674C4.33076 69.3156 4.12813 68.7346 4.05037 68.1242C3.96828 67.5082 3.96431 66.9124 4.03846 66.3368C4.08577 65.9695 4.18477 65.5535 4.33547 65.0886C4.48184 64.618 4.71779 64.1767 5.0433 63.7646C5.36946 63.3475 5.82218 63.025 6.40146 62.7969C6.98075 62.5688 7.72447 62.5133 8.63263 62.6303L16.1659 63.6007L15.9396 65.3574L14.3913 65.158L14.3797 65.2473C14.6125 65.3984 14.8525 65.6311 15.0995 65.9454C15.3466 66.2598 15.5397 66.6605 15.6787 67.1476C15.8178 67.6347 15.8445 68.2107 15.7588 68.8757ZM14.2152 68.4045C14.3047 67.7097 14.2437 67.1065 14.0321 66.5949C13.8212 66.0784 13.5155 65.6708 13.1151 65.372C12.7153 65.0682 12.2772 64.8857 11.8008 64.8243L10.1929 64.6172C10.2726 64.7031 10.3334 64.8774 10.3752 65.1401C10.4127 65.3972 10.4377 65.693 10.4501 66.0276C10.4582 66.3565 10.4622 66.6774 10.4623 66.9902C10.4581 67.2974 10.4562 67.5469 10.4567 67.7387C10.4574 68.2029 10.4992 68.6422 10.5821 69.0564C10.6606 69.4651 10.8157 69.808 11.0474 70.085C11.2748 70.3565 11.6118 70.521 12.0584 70.5785C12.6688 70.6571 13.1594 70.4908 13.5303 70.0794C13.8968 69.6625 14.1251 69.1042 14.2152 68.4045Z" fill="black"/>
<path d="M15.0113 41.1133L14.7373 42.7441C14.4548 42.721 14.1588 42.7441 13.8491 42.8134C13.5371 42.8761 13.2358 43.0213 12.9453 43.2491C12.6547 43.4769 12.3991 43.8236 12.1785 44.2894C11.8766 44.9271 11.7719 45.528 11.8646 46.0923C11.9548 46.6499 12.2238 47.0347 12.6715 47.2467C13.0695 47.4352 13.4523 47.4393 13.82 47.2591C14.1877 47.0789 14.594 46.7177 15.039 46.1755L16.1513 44.8088C16.8185 43.9843 17.4932 43.454 18.1753 43.2178C18.8528 42.9795 19.5557 43.0327 20.2837 43.3775C20.8807 43.6602 21.3329 44.0848 21.6404 44.6512C21.9501 45.213 22.0961 45.8635 22.0783 46.6025C22.0606 47.3415 21.86 48.1157 21.4767 48.9252C20.9734 49.9879 20.3263 50.7582 19.5352 51.2362C18.7441 51.7142 17.8615 51.836 16.8874 51.6017L17.2271 49.9023C17.8563 50.0232 18.4065 49.9487 18.8774 49.679C19.3506 49.4048 19.7424 48.9399 20.0529 48.2841C20.4062 47.538 20.5285 46.8706 20.4197 46.2821C20.3085 45.6868 20.029 45.2832 19.5813 45.0712C19.2195 44.8999 18.8566 44.883 18.4925 45.0206C18.1238 45.1561 17.7542 45.4572 17.3837 45.9239L16.1544 47.4677C15.4764 48.3148 14.794 48.8498 14.1072 49.0726C13.418 49.2888 12.7138 49.2267 11.9948 48.8862C11.4069 48.6078 10.965 48.1964 10.6691 47.6521C10.3754 47.1033 10.2356 46.4808 10.2498 45.7844C10.2662 45.0835 10.4478 44.3667 10.7947 43.6341C11.283 42.6031 11.8925 41.9007 12.6231 41.5269C13.3558 41.1487 14.1519 41.0108 15.0113 41.1133Z" fill="black"/>
<path d="M26.4867 21.8519L27.5784 22.8821L23.478 27.2272L22.3863 26.197L26.4867 21.8519ZM21.5726 23.0349L22.7883 21.7467L30.7798 29.288C31.1437 29.6315 31.4664 29.8363 31.7479 29.9024C32.0293 29.9615 32.2799 29.9366 32.4997 29.8275C32.7193 29.7115 32.9184 29.5588 33.097 29.3696C33.2309 29.2276 33.3335 29.1043 33.4048 28.9996C33.4725 28.8915 33.5266 28.8049 33.5672 28.74L34.9717 29.5701C34.922 29.6883 34.8398 29.8411 34.7248 30.0285C34.6136 30.2194 34.4446 30.4349 34.2179 30.675C33.8745 31.039 33.4597 31.3218 32.9736 31.5234C32.4909 31.7215 31.9812 31.784 31.4446 31.7111C30.9115 31.6345 30.4011 31.3661 29.9134 30.906L21.5726 23.0349Z" fill="black"/>
<path d="M46.7366 20.7723L41.2075 10.6563L42.7091 9.8356L43.5442 11.3635L43.6496 11.3059C43.5604 10.7046 43.6721 10.1161 43.9847 9.54039C44.2973 8.96469 44.7565 8.51125 45.3624 8.18008C45.4766 8.11769 45.6205 8.04189 45.7941 7.95269C45.9677 7.86349 46.1008 7.79928 46.1935 7.76007L47.0574 9.34068C46.9975 9.35631 46.8659 9.40254 46.6628 9.47939C46.4615 9.54945 46.2578 9.64087 46.0514 9.75366C45.5597 10.0224 45.177 10.3656 44.9034 10.7831C44.6318 11.1939 44.4825 11.6405 44.4553 12.1229C44.4302 12.5985 44.5424 13.0646 44.792 13.5213L48.2908 19.9228L46.7366 20.7723Z" fill="black"/>
<path d="M67.9042 13.0778C66.8814 13.2703 65.9382 13.1959 65.0746 12.8544C64.2158 12.5119 63.4877 11.9438 62.8903 11.15C62.2977 10.3552 61.8913 9.37269 61.671 8.20238C61.4489 7.02223 61.4689 5.95179 61.731 4.99108C61.9981 4.02943 62.4693 3.23301 63.1448 2.60182C63.8252 1.96969 64.6768 1.55737 65.6996 1.36486C66.7223 1.17234 67.6631 1.2473 68.5218 1.58973C69.3855 1.93123 70.114 2.50181 70.7075 3.30148C71.3059 4.10023 71.7162 5.08967 71.9383 6.26982C72.1586 7.44014 72.1347 8.50366 71.8668 9.46038C71.6037 10.4162 71.132 11.2101 70.4516 11.8423C69.7761 12.4735 68.927 12.8853 67.9042 13.0778ZM67.6099 11.5141C68.3868 11.3679 68.9886 11.0484 69.4152 10.5557C69.8418 10.063 70.1145 9.46944 70.2332 8.77501C70.352 8.08058 70.3401 7.35473 70.1976 6.59747C70.0551 5.84021 69.8018 5.15725 69.4377 4.54861C69.0737 3.93996 68.6029 3.48123 68.0255 3.17242C67.448 2.86361 66.7708 2.78232 65.9939 2.92856C65.2169 3.07479 64.6156 3.39672 64.19 3.89435C63.7643 4.39197 63.4926 4.99046 63.3747 5.68981C63.2569 6.38916 63.2692 7.11747 63.4117 7.87473C63.5543 8.63199 63.8071 9.31249 64.1702 9.91622C64.5333 10.5199 65.0032 10.9738 65.5797 11.2777C66.1562 11.5815 66.833 11.6604 67.6099 11.5141Z" fill="black"/>
<path d="M86.2505 5.01973L85.3645 11.8979L83.6077 11.6716L85.0806 0.237735L86.7778 0.456368L86.5477 2.24291L86.6965 2.26209C87.0393 1.71599 87.5063 1.30192 88.0976 1.01989C88.6895 0.732904 89.4172 0.645025 90.2807 0.756259C91.0549 0.855985 91.7119 1.10205 92.2516 1.49445C92.7919 1.88189 93.1822 2.41648 93.4223 3.09821C93.663 3.77498 93.7207 4.5997 93.5954 5.57238L92.6595 12.8377L90.9028 12.6114L91.8233 5.46518C91.939 4.56694 91.7959 3.83717 91.394 3.27585C90.9927 2.70957 90.3851 2.37401 89.5713 2.26917C89.0105 2.19693 88.4936 2.25395 88.0206 2.44022C87.5526 2.62713 87.162 2.93753 86.8488 3.37142C86.5356 3.8053 86.3362 4.35474 86.2505 5.01973Z" fill="black"/>
<path d="M107.487 18.1762C106.546 17.7307 105.827 17.116 105.329 16.3321C104.835 15.5504 104.58 14.6628 104.563 13.6694C104.551 12.6781 104.8 11.6443 105.31 10.568C105.824 9.48272 106.469 8.62848 107.246 8.00532C108.027 7.3843 108.876 7.01698 109.794 6.90336C110.716 6.79188 111.647 6.95886 112.588 7.4043C113.528 7.84973 114.245 8.46334 114.739 9.24511C115.237 10.029 115.491 10.9189 115.501 11.9147C115.516 12.9126 115.266 13.9542 114.752 15.0395C114.242 16.1158 113.598 16.9622 112.819 17.5787C112.044 18.1973 111.196 18.5624 110.274 18.6739C109.356 18.7875 108.427 18.6216 107.487 18.1762ZM108.168 16.7381C108.882 17.0765 109.557 17.1717 110.192 17.0239C110.826 16.876 111.396 16.5561 111.9 16.0641C112.404 15.5721 112.821 14.9779 113.151 14.2814C113.481 13.585 113.677 12.8836 113.741 12.1772C113.804 11.4709 113.693 10.823 113.407 10.2338C113.121 9.64452 112.621 9.18072 111.907 8.84236C111.192 8.50399 110.517 8.411 109.88 8.56339C109.243 8.71578 108.671 9.04023 108.165 9.53674C107.658 10.0333 107.24 10.6297 106.911 11.3261C106.581 12.0226 106.385 12.7217 106.324 13.4236C106.263 14.1254 106.376 14.7687 106.664 15.3535C106.952 15.9382 107.453 16.3997 108.168 16.7381Z" fill="black"/>
<path d="M119.09 24.4494L127.002 16.065L128.247 17.2394L127.01 18.5495L127.119 18.6525C127.716 18.3698 128.326 18.2884 128.949 18.4084C129.576 18.5247 130.162 18.8405 130.708 19.3556C131.261 19.8776 131.603 20.4375 131.733 21.0355C131.871 21.6332 131.832 22.2538 131.617 22.8971L131.705 22.9796C132.328 22.7491 132.975 22.7091 133.644 22.8596C134.318 23.0065 134.955 23.3632 135.555 23.9299C136.305 24.6373 136.696 25.4507 136.73 26.37C136.767 27.2857 136.32 28.2366 135.39 29.2228L130.094 34.8343L128.806 33.6186L134.102 28.0071C134.685 27.3885 134.933 26.7866 134.846 26.2016C134.758 25.6166 134.485 25.1077 134.026 24.675C133.437 24.1187 132.812 23.866 132.151 23.917C131.494 23.9643 130.91 24.2591 130.398 24.8014L125.247 30.26L123.937 29.0237L129.356 23.2812C129.806 22.8045 130.014 22.2746 129.979 21.6916C129.948 21.1049 129.688 20.5815 129.201 20.1213C128.866 19.8054 128.469 19.5992 128.009 19.5028C127.554 19.4098 127.087 19.4375 126.61 19.5858C126.14 19.7339 125.711 20.0136 125.323 20.4248L120.378 25.6651L119.09 24.4494Z" fill="black"/>
<path d="M136.299 44.6745L146.415 39.1454L147.264 40.6997L137.148 46.2288L136.299 44.6745ZM148.533 39.0142C148.367 38.7112 148.328 38.3936 148.414 38.0613C148.503 37.7334 148.692 37.4902 148.982 37.3318C149.272 37.1734 149.578 37.1454 149.902 37.2478C150.229 37.3545 150.475 37.5593 150.64 37.8623C150.806 38.1652 150.844 38.4807 150.755 38.8086C150.669 39.1409 150.481 39.3863 150.191 39.5447C149.901 39.7031 149.593 39.7289 149.267 39.6221C148.943 39.5198 148.698 39.3171 148.533 39.0142Z" fill="black"/>
<path d="M143.172 64.0204C143.037 63.3024 143.05 62.6254 143.21 61.9894C143.375 61.3524 143.683 60.8132 144.135 60.3718C144.591 59.9295 145.188 59.6389 145.926 59.5001C146.575 59.3779 147.125 59.4067 147.577 59.5865C148.033 59.7654 148.417 60.047 148.728 60.4313C149.04 60.8156 149.301 61.2553 149.511 61.7503C149.727 62.2493 149.919 62.7554 150.087 63.2686C150.305 63.9404 150.477 64.486 150.602 64.9055C150.732 65.3289 150.873 65.6284 151.023 65.8038C151.174 65.9841 151.389 66.0479 151.67 65.9951L151.729 65.984C152.457 65.847 152.985 65.5414 153.313 65.0672C153.642 64.598 153.731 63.9626 153.58 63.161C153.424 62.33 153.119 61.7127 152.667 61.3092C152.214 60.9056 151.763 60.6468 151.314 60.5328L151.593 58.7695C152.337 58.935 152.947 59.2275 153.423 59.647C153.905 60.0705 154.277 60.5605 154.54 61.117C154.808 61.6774 154.996 62.2429 155.103 62.8133C155.172 63.1771 155.206 63.6034 155.207 64.0922C155.213 64.5849 155.125 65.0775 154.943 65.57C154.761 66.0675 154.43 66.5142 153.95 66.9101C153.469 67.306 152.779 67.5887 151.879 67.758L144.415 69.163L144.087 67.4223L145.622 67.1335L145.605 67.045C145.337 66.9733 145.037 66.8261 144.705 66.6035C144.372 66.3809 144.065 66.0594 143.782 65.6392C143.499 65.2189 143.296 64.6793 143.172 64.0204ZM144.786 63.9916C144.915 64.68 145.16 65.2348 145.519 65.6559C145.879 66.082 146.296 66.3752 146.769 66.5357C147.243 66.701 147.716 66.7393 148.188 66.6504L149.782 66.3505C149.679 66.2934 149.567 66.1464 149.446 65.9095C149.331 65.6766 149.216 65.403 149.101 65.0886C148.992 64.7783 148.889 64.4743 148.792 64.1769C148.701 63.8834 148.626 63.6455 148.566 63.4633C148.422 63.022 148.246 62.6172 148.04 62.2488C147.839 61.8844 147.585 61.6063 147.279 61.4144C146.979 61.2265 146.608 61.1742 146.165 61.2575C145.56 61.3713 145.145 61.6811 144.92 62.1869C144.7 62.6967 144.655 63.2982 144.786 63.9916Z" fill="black"/>
<path d="M140.335 100.253L154.227 106.831L150.257 115.216L148.765 114.509L151.938 107.807L147.244 105.584L144.276 111.852L142.784 111.145L145.752 104.877L141.031 102.642L137.806 109.452L136.313 108.745L140.335 100.253Z" fill="black"/>
<path d="M137.561 132.216L126.382 121.666L127.598 120.378L138.777 130.928L137.561 132.216Z" fill="black"/>
<path d="M110.554 133.347C111.528 132.815 112.487 132.57 113.429 132.614C114.369 132.665 115.242 132.974 116.049 133.543C116.854 134.118 117.539 134.924 118.106 135.96C118.672 136.996 118.983 138.012 119.037 139.009C119.089 140.012 118.896 140.922 118.458 141.737C118.018 142.56 117.341 143.22 116.428 143.719C115.901 144.007 115.333 144.204 114.723 144.309C114.114 144.414 113.49 144.384 112.852 144.22C112.217 144.059 111.598 143.725 110.995 143.216C110.392 142.707 109.833 141.981 109.317 141.037L108.957 140.379L116.755 136.117L117.489 137.46L111.272 140.858C111.584 141.429 111.976 141.876 112.449 142.199C112.918 142.524 113.432 142.703 113.99 142.734C114.545 142.767 115.103 142.63 115.665 142.323C116.284 141.985 116.736 141.538 117.02 140.984C117.302 140.436 117.431 139.853 117.406 139.233C117.381 138.614 117.216 138.025 116.911 137.468L116.422 136.572C116.004 135.808 115.519 135.233 114.965 134.845C114.409 134.465 113.818 134.266 113.193 134.248C112.57 134.235 111.945 134.4 111.317 134.744C110.909 134.967 110.571 135.225 110.304 135.52C110.035 135.82 109.844 136.153 109.729 136.518C109.617 136.887 109.592 137.283 109.652 137.706L107.92 138.106C107.8 137.51 107.82 136.917 107.982 136.327C108.147 135.741 108.445 135.19 108.876 134.675C109.31 134.164 109.869 133.722 110.554 133.347Z" fill="black"/>
<path d="M90.8111 135.785C91.652 135.627 92.3952 135.599 93.0407 135.701C93.6854 135.799 94.2421 135.984 94.7111 136.257C95.1742 136.527 95.5608 136.836 95.8708 137.185L94.6674 138.419C94.4712 138.242 94.2276 138.044 93.9367 137.824C93.6448 137.599 93.2714 137.427 92.8164 137.309C92.3556 137.187 91.7834 137.19 91.0999 137.319C90.1853 137.491 89.4721 137.854 88.9605 138.409C88.4488 138.964 88.2818 139.713 88.4595 140.657L88.8926 142.958L89.0401 142.931C89.1291 142.7 89.2629 142.41 89.4416 142.061C89.6162 141.717 89.9002 141.386 90.2934 141.068C90.6826 140.755 91.246 140.53 91.9836 140.391C92.8982 140.219 93.7601 140.28 94.5693 140.576C95.3736 140.873 96.065 141.394 96.6433 142.141C97.2168 142.888 97.6146 143.852 97.8367 145.032C98.0552 146.193 98.0413 147.242 97.7951 148.179C97.5499 149.121 97.1078 149.897 96.4689 150.506C95.8309 151.12 95.035 151.517 94.081 151.696C93.3434 151.835 92.7351 151.822 92.2561 151.658C91.7731 151.499 91.3869 151.287 91.0975 151.021C90.8041 150.76 90.5749 150.544 90.4101 150.371L90.2331 150.404L90.5718 152.204L88.8901 152.521L86.6965 140.867C86.5133 139.893 86.5855 139.06 86.9133 138.367C87.2353 137.67 87.7407 137.109 88.4295 136.684C89.1125 136.255 89.9064 135.955 90.8111 135.785ZM92.0419 141.999C91.3436 142.13 90.7836 142.401 90.3619 142.812C89.9402 143.222 89.6604 143.751 89.5225 144.398C89.3847 145.045 89.3944 145.786 89.5517 146.622C89.7054 147.439 89.9639 148.136 90.3273 148.714C90.6907 149.292 91.1467 149.713 91.6952 149.976C92.2438 150.24 92.8721 150.305 93.5802 150.171C94.3178 150.033 94.8972 149.73 95.3186 149.264C95.7351 148.798 96.007 148.228 96.1344 147.552C96.2569 146.878 96.2459 146.157 96.1016 145.39C95.9535 144.603 95.6996 143.93 95.3399 143.372C94.9762 142.819 94.5185 142.416 93.9669 142.164C93.4113 141.917 92.7696 141.862 92.0419 141.999Z" fill="black"/>
<path d="M72.1875 140.629C72.912 140.723 73.552 140.944 74.1074 141.293C74.6621 141.647 75.0796 142.107 75.3599 142.673C75.6395 143.243 75.7314 143.901 75.6355 144.645C75.5511 145.3 75.3537 145.815 75.0432 146.188C74.7321 146.567 74.3456 146.845 73.8838 147.023C73.422 147.201 72.9233 147.313 72.3875 147.36C71.8461 147.411 71.3054 147.437 70.7655 147.438C70.0592 147.438 69.4873 147.433 69.0498 147.422C68.6067 147.415 68.2785 147.456 68.0653 147.545C67.8472 147.633 67.7199 147.818 67.6834 148.101L67.6758 148.16C67.5811 148.895 67.7086 149.492 68.0582 149.95C68.4028 150.408 68.9795 150.689 69.7884 150.794C70.6271 150.902 71.3083 150.803 71.832 150.497C72.3557 150.191 72.7412 149.842 72.9885 149.45L74.5792 150.261C74.1919 150.917 73.7252 151.407 73.1791 151.73C72.6274 152.057 72.0463 152.26 71.436 152.338C70.82 152.42 70.2242 152.424 69.6485 152.35C69.2813 152.302 68.8652 152.203 68.4003 152.053C67.9298 151.906 67.4885 151.67 67.0764 151.345C66.6593 151.019 66.3367 150.566 66.1086 149.987C65.8806 149.407 65.825 148.664 65.942 147.755L66.9124 140.222L68.6692 140.449L68.4697 141.997L68.5591 142.008C68.7101 141.776 68.9428 141.536 69.2572 141.289C69.5715 141.042 69.9722 140.848 70.4593 140.709C70.9464 140.57 71.5225 140.544 72.1875 140.629ZM71.7162 142.173C71.0214 142.083 70.4183 142.144 69.9067 142.356C69.3902 142.567 68.9825 142.873 68.6837 143.273C68.38 143.673 68.1974 144.111 68.136 144.587L67.9289 146.195C68.0149 146.116 68.1892 146.055 68.4519 146.013C68.7089 145.975 69.0048 145.95 69.3393 145.938C69.6683 145.93 69.9892 145.926 70.302 145.926C70.6092 145.93 70.8586 145.932 71.0504 145.931C71.5147 145.931 71.9539 145.889 72.3682 145.806C72.7768 145.728 73.1197 145.572 73.3968 145.341C73.6682 145.113 73.8327 144.776 73.8902 144.33C73.9689 143.719 73.8025 143.229 73.3912 142.858C72.9743 142.491 72.4159 142.263 71.7162 142.173Z" fill="black"/>
<path d="M51.6622 142.578L54.6304 136.311L56.2312 137.069L51.2971 147.488L49.7506 146.755L50.5215 145.127L50.3858 145.063C49.8911 145.477 49.319 145.726 48.6695 145.812C48.0178 145.902 47.2986 145.76 46.5117 145.388C45.8063 145.054 45.2575 144.617 44.8655 144.077C44.4713 143.541 44.2654 142.912 44.2477 142.19C44.2279 141.472 44.4278 140.669 44.8475 139.783L47.9827 133.163L49.5836 133.921L46.4998 140.433C46.1122 141.251 46.0228 141.989 46.2316 142.647C46.4382 143.31 46.9124 143.817 47.654 144.168C48.165 144.41 48.6742 144.516 49.1816 144.485C49.6845 144.452 50.1519 144.277 50.5839 143.961C51.0158 143.645 51.3752 143.184 51.6622 142.578Z" fill="black"/>
<path d="M25.1636 129.901L26.1939 128.81L30.5389 132.91L29.5087 134.002L25.1636 129.901ZM26.3466 134.816L25.0584 133.6L32.5998 125.608C32.9432 125.244 33.148 124.922 33.2142 124.64C33.2733 124.359 33.2483 124.108 33.1393 123.888C33.0232 123.669 32.8705 123.47 32.6813 123.291C32.5394 123.157 32.4161 123.055 32.3113 122.983C32.2032 122.916 32.1167 122.861 32.0518 122.821L32.8818 121.416C33.0001 121.466 33.1529 121.548 33.3403 121.663C33.5311 121.775 33.7466 121.944 33.9868 122.17C34.3507 122.514 34.6335 122.928 34.8352 123.415C35.0332 123.897 35.0958 124.407 35.0228 124.944C34.9463 125.477 34.6779 125.987 34.2177 126.475L26.3466 134.816Z" fill="black"/>
<path d="M23.0407 107.242C23.5735 108.217 23.8179 109.175 23.774 110.117C23.7233 111.057 23.4138 111.931 22.8454 112.737C22.2703 113.542 21.4646 114.228 20.4284 114.794C19.3922 115.36 18.3758 115.671 17.3791 115.725C16.3756 115.778 15.4662 115.585 14.6508 115.146C13.8285 114.706 13.1679 114.03 12.6687 113.116C12.3807 112.589 12.1842 112.021 12.079 111.411C11.9739 110.802 12.0037 110.178 12.1685 109.541C12.3289 108.906 12.6634 108.287 13.172 107.684C13.6806 107.081 14.4069 106.521 15.3509 106.005L16.0095 105.645L20.2715 113.443L18.928 114.177L15.5299 107.96C14.9591 108.272 14.5122 108.665 14.1891 109.138C13.8637 109.606 13.6854 110.12 13.6544 110.679C13.6209 111.233 13.7578 111.791 14.0649 112.353C14.4033 112.972 14.8497 113.424 15.4043 113.708C15.952 113.99 16.5355 114.119 17.1549 114.094C17.7742 114.069 18.3627 113.905 18.9203 113.6L19.816 113.11C20.58 112.693 21.1556 112.207 21.5428 111.653C21.9233 111.097 22.1223 110.507 22.1397 109.881C22.1528 109.258 21.9877 108.633 21.6445 108.005C21.4214 107.597 21.1627 107.259 20.8686 106.992C20.5676 106.723 20.2348 106.532 19.8701 106.418C19.501 106.306 19.1049 106.28 18.6816 106.34L18.2824 104.608C18.8781 104.488 19.4711 104.509 20.0615 104.671C20.6475 104.835 21.198 105.133 21.7131 105.564C22.2238 105.998 22.6664 106.557 23.0407 107.242Z" fill="black"/>
</svg>
